<?xml version="1.0" encoding="UTF-8" standalone="no"?>
<svg
   xmlns:dc="http://purl.org/dc/elements/1.1/"
   xmlns:cc="http://creativecommons.org/ns#"
   xmlns:rdf="http://www.w3.org/1999/02/22-rdf-syntax-ns#"
   xmlns:svg="http://www.w3.org/2000/svg"
   xmlns="http://www.w3.org/2000/svg"
   xmlns:xlink="http://www.w3.org/1999/xlink"
   xmlns:sodipodi="http://sodipodi.sourceforge.net/DTD/sodipodi-0.dtd"
   xmlns:inkscape="http://www.inkscape.org/namespaces/inkscape"
   data-name="Layer 1"
   viewBox="0 0 99.43689 99.43689"
   x="0px"
   y="0px"
   version="1.1"
   id="svg14"
   sodipodi:docname="noun_1009592_cc.svg"
   width="99.43689"
   height="99.43689"
   inkscape:version="0.92.1 r15371"
   inkscape:export-filename="X:\+var\icon16.png"
   inkscape:export-xdpi="15.446983"
   inkscape:export-ydpi="15.446983">
  <metadata
     id="metadata20">
    <rdf:RDF>
      <cc:Work
         rdf:about="">
        <dc:format>image/svg+xml</dc:format>
        <dc:type
           rdf:resource="http://purl.org/dc/dcmitype/StillImage" />
        <dc:title>icons_animals_1</dc:title>
      </cc:Work>
    </rdf:RDF>
  </metadata>
  <defs
     id="defs18">
    <linearGradient
       inkscape:collect="always"
       id="linearGradient4583">
      <stop
         style="stop-color:#d1edf3;stop-opacity:1;"
         offset="0"
         id="stop4579" />
      <stop
         style="stop-color:#ffffff;stop-opacity:1"
         offset="1"
         id="stop4581" />
    </linearGradient>
    <linearGradient
       inkscape:collect="always"
       xlink:href="#linearGradient4583"
       id="linearGradient4585"
       x1="48.594864"
       y1="98.842087"
       x2="48.594864"
       y2="-0.8756988"
       gradientUnits="userSpaceOnUse" />
  </defs>
  <sodipodi:namedview
     pagecolor="#ffffff"
     bordercolor="#666666"
     borderopacity="1"
     objecttolerance="10"
     gridtolerance="10"
     guidetolerance="10"
     inkscape:pageopacity="0"
     inkscape:pageshadow="2"
     inkscape:window-width="1366"
     inkscape:window-height="715"
     id="namedview16"
     showgrid="false"
     fit-margin-top="0"
     fit-margin-left="0"
     fit-margin-right="0"
     fit-margin-bottom="0"
     inkscape:zoom="5.3400704"
     inkscape:cx="27.665649"
     inkscape:cy="53.08867"
     inkscape:window-x="-8"
     inkscape:window-y="-8"
     inkscape:window-maximized="1"
     inkscape:current-layer="layer2"
     inkscape:pagecheckerboard="true" />
  <title
     id="title2">icons_animals_1</title>
  <g
     inkscape:groupmode="layer"
     id="layer1"
     inkscape:label="Back"
     transform="translate(1.1235833,0.59480369)">
    <rect
       style="opacity:1;fill:url(#linearGradient4585);fill-opacity:1;fill-rule:nonzero;stroke:none;stroke-width:10.80000019;stroke-miterlimit:4;stroke-dasharray:none;stroke-opacity:1"
       id="rect4497"
       width="99.43689"
       height="99.43689"
       x="-1.1235833"
       y="-0.59480369"
       ry="17.713799" />
  </g>
  <g
     inkscape:groupmode="layer"
     id="layer2"
     inkscape:label="Front"
     transform="translate(1.1235833,0.59480369)">
    <path
       d="m 5.9077508,61.33009 a 1,1 0 0 0 1.1,-0.85 c 0.05,-0.39 5.8900002,-39 46.8900002,-42.79 a 21.86,21.86 0 0 1 16.64,5.65 c 3.47,3.24 5.57,7.47 5.57,11.29 0,0 0,0 0,0 0,0 0,0.05 0,0.08 a 1,1 0 0 0 0.07,0.28 c 0,0 0,0 0,0.05 v 0 l 0.08,0.12 0.09,0.1 0.1,0.08 0.12,0.08 v 0 c 5.43,2.52 11.16,5.86 13.1,11.58 h -1.05 c -3.6,0.15 -8.54,0.35 -13.54,2.45 v 0 c -6.45,2.96 -13.07,8.98 -16.92,22.38 v 0.06 c 0,0.17 -0.1,0.33 -0.15,0.51 a 90.32,90.32 0 0 0 -2.48,22 1,1 0 0 0 1,1 v 0 a 1,1 0 0 0 1,-1 88,88 0 0 1 1.61,-17.77 13.87,13.87 0 0 0 10.07,7.67 14.93,14.93 0 0 0 2.83,0.28 c 4.39,0 8.13,-2.06 9.75,-5.58 3.73,-8.07 -3,-23.86 -4.84,-27.94 a 37.82,37.82 0 0 1 11.86,-1.88 c 0.86,0 1.65,-0.07 2.35,-0.12 a 1,1 0 0 0 0.9,-1.23 c -1.56,-6.59 -7.11,-10.44 -12.77,-13.2 3.5,-2.07 10.87,-7.23 9,-13 -1.66,-5 -6.22,-6.19 -9.29,-6.07 a 9.43,9.43 0 0 0 -4.44,-8.8200003 c -4.72,-3.06 -9.6,-1 -11.47,0 a 12.45,12.45 0 0 0 -9.38,-3.71 v 0 a 9.82,9.82 0 0 0 -7.91,3.05 c -3.34,3.6600003 -3.36,9.5000003 -3.24,11.6800003 -32.55,9.22 -37.4500002,42.08 -37.5500002,42.45 a 1,1 0 0 0 0.9,1.12 z m 74.1000002,16.83 c -1.81,3.92 -6.52,4.92 -10.39,4.17 -4.15,-0.81 -9.09,-3.92 -9.49,-10 3.48,-12.06 9.18,-17.75 15,-20.47 1.69,3.77 8.2,19.06 4.88,26.3 z m -32.73,-70.7400003 a 8,8 0 0 1 6.4,-2.39 v 0 c 5.85,0 8.23,3.3800003 8.32,3.5200003 a 1,1 0 0 0 1.4,0.27 c 0.21,-0.15 5.29,-3.5400003 10,-0.46 a 7.35,7.35 0 0 1 3.36,8 1,1 0 0 0 0.22,0.95 1,1 0 0 0 0.92,0.31 c 0.27,0 6.53,-1.13 8.41,4.58 1.37,4.18 -4.71,8.72 -8.38,10.83 a 19,19 0 0 0 -6,-11.16 23.92,23.92 0 0 0 -18.17,-6.18 63.55,63.55 0 0 0 -9.24,1.54 c -0.06,-2.17 0.13,-6.93 2.76,-9.8100003 z"
       id="path4"
       inkscape:connector-curvature="0"
       style="fill:#ff404c;fill-opacity:1;stroke:#ff404c;stroke-opacity:1" />
    <path
       d="m 46.007751,44.03009 a 1.0008621,1.0008621 0 0 0 -1.38,-1.45 c -0.38,0.36 -9.29,8.93 -8,15.11 0.43,2.14 2,3.72 4.55,4.69 a 10,10 0 0 0 3.51,0.71 6.34,6.34 0 0 0 3.76,-1.17 c 4.77,-3.39 4.56,-12.99 4.56,-13.4 a 1,1 0 0 0 -1,-1 v 0 a 1,1 0 0 0 -1,1 c 0,0.09 0.17,8.94 -3.73,11.71 -1.4,1 -3.17,1.07 -5.4,0.22 -1.92,-0.72 -3,-1.78 -3.29,-3.22 -0.85,-4.17 5.1,-10.95 7.42,-13.2 z"
       id="path6"
       inkscape:connector-curvature="0"
       style="fill:#ff404c;fill-opacity:1;stroke:#ff404c;stroke-opacity:1" />
    <path
       d="m 61.837751,34.40009 a 6.57,6.57 0 0 0 2.42,-0.49 1,1 0 0 0 -0.73,-1.86 3.77,3.77 0 0 1 -4.89,-1.56 1.0077822,1.0077822 0 0 0 -1.75,1 5.82,5.82 0 0 0 4.95,2.91 z"
       id="path8"
       inkscape:connector-curvature="0"
       style="fill:#ff404c;fill-opacity:1;stroke:#ff404c;stroke-opacity:1" />
  </g>
</svg>
