<?xml version="1.0" encoding="UTF-8" standalone="no"?>
<svg
   xmlns:dc="http://purl.org/dc/elements/1.1/"
   xmlns:cc="http://creativecommons.org/ns#"
   xmlns:rdf="http://www.w3.org/1999/02/22-rdf-syntax-ns#"
   xmlns:svg="http://www.w3.org/2000/svg"
   xmlns="http://www.w3.org/2000/svg"
   height="80.667999"
   width="77.078003"
   id="svg14"
   xml:space="preserve"
   enable-background="new 0 0 100 100"
   viewBox="0 0 77.078001 80.667999"
   y="0px"
   x="0px"
   version="1.0"><metadata
     id="metadata20"><rdf:RDF><cc:Work
         rdf:about=""><dc:format>image/svg+xml</dc:format><dc:type
           rdf:resource="http://purl.org/dc/dcmitype/StillImage" /><dc:title></dc:title></cc:Work></rdf:RDF></metadata><defs
     id="defs18" /><g
     transform="translate(-11.461,-9.666)"
     id="g8"><path
       class="menu-circle"
       id="path2"
       d="m 50.001,31.744 c 4.708,0 8.538,-3.831 8.538,-8.539 0,-4.708 -3.83,-8.539 -8.538,-8.539 -4.709,0 -8.539,3.831 -8.539,8.539 0,4.708 3.83,8.539 8.539,8.539 z m 0,-16.077 c 4.156,0 7.538,3.382 7.538,7.539 0,4.157 -3.382,7.539 -7.538,7.539 -4.157,0 -7.539,-3.382 -7.539,-7.539 0,-4.157 3.382,-7.539 7.539,-7.539 z" /><path
       class="menu-circle"
       id="path4"
       d="m 50.001,41.461 c -4.709,0 -8.54,3.831 -8.54,8.539 0,4.708 3.831,8.539 8.54,8.539 4.708,0 8.538,-3.83 8.538,-8.539 0,-4.709 -3.83,-8.539 -8.538,-8.539 z m 0,16.078 c -4.157,0 -7.54,-3.383 -7.54,-7.539 0,-4.157 3.383,-7.539 7.54,-7.539 4.156,0 7.538,3.382 7.538,7.539 0,4.156 -3.382,7.539 -7.538,7.539 z" /><path
       class="menu-circle"
       id="path6"
       d="m 50.001,68.256 c -4.709,0 -8.54,3.832 -8.54,8.539 0,4.709 3.831,8.539 8.54,8.539 4.708,0 8.538,-3.83 8.538,-8.539 0,-4.707 -3.83,-8.539 -8.538,-8.539 z m 0,16.078 c -4.157,0 -7.54,-3.383 -7.54,-7.539 0,-4.156 3.383,-7.539 7.54,-7.539 4.156,0 7.538,3.383 7.538,7.539 0,4.156 -3.382,7.539 -7.538,7.539 z" /></g></svg>